<svg width="58" height="59" viewBox="0 0 58 59" fill="none" xmlns="http://www.w3.org/2000/svg">
<g filter="url(#filter0_d_84_650)">
<path d="M34.9999 0.830017H22.9999C12.5065 0.830017 3.99994 9.33661 3.99994 19.83V31.83C3.99994 42.3234 12.5065 50.83 22.9999 50.83H34.9999C45.4933 50.83 53.9999 42.3234 53.9999 31.83V19.83C53.9999 9.33661 45.4933 0.830017 34.9999 0.830017Z" fill="#F03E3D"/>
<path d="M34.5699 20.259H35.43C35.59 20.259 35.7099 20.134 35.7099 19.973V19.402C35.7099 19.241 35.59 19.116 35.43 19.116H22.2899C22.1199 19.116 21.9999 19.241 21.9999 19.402V19.973C21.9999 20.134 22.1199 20.259 22.2899 20.259H23.14C23.14 23.562 24.7199 25.955 26.4699 27.116C24.7199 28.277 23.14 30.669 23.14 33.973H22.2899C22.1199 33.973 21.9999 34.098 21.9999 34.259V34.83C21.9999 34.991 22.1199 35.116 22.2899 35.116H35.43C35.59 35.116 35.7099 34.991 35.7099 34.83V34.259C35.7099 34.098 35.59 33.973 35.43 33.973H34.5699C34.5699 30.669 32.9899 28.277 31.2399 27.116C32.9899 25.955 34.5699 23.562 34.5699 20.259ZM33.43 20.259C33.43 21.562 33.13 22.714 32.67 23.687H25.0399C24.5799 22.714 24.2899 21.562 24.2899 20.259H33.43ZM32.92 31.116H24.7899C25.4599 29.393 26.6399 28.169 27.8299 27.687H29.8799C31.0699 28.169 32.26 29.393 32.92 31.116Z" fill="white"/>
</g>
<defs>
<filter id="filter0_d_84_650" x="-6.10352e-05" y="0.830017" width="58.0001" height="58" filterUnits="userSpaceOnUse" color-interpolation-filters="sRGB">
<feFlood flood-opacity="0" result="BackgroundImageFix"/>
<feColorMatrix in="SourceAlpha" type="matrix" values="0 0 0 0 0 0 0 0 0 0 0 0 0 0 0 0 0 0 127 0" result="hardAlpha"/>
<feOffset dy="4"/>
<feGaussianBlur stdDeviation="2"/>
<feColorMatrix type="matrix" values="0 0 0 0 0 0 0 0 0 0 0 0 0 0 0 0 0 0 0.25 0"/>
<feBlend mode="normal" in2="BackgroundImageFix" result="effect1_dropShadow_84_650"/>
<feBlend mode="normal" in="SourceGraphic" in2="effect1_dropShadow_84_650" result="shape"/>
</filter>
</defs>
</svg>
