<svg width="58" height="59" viewBox="0 0 58 59" fill="none" xmlns="http://www.w3.org/2000/svg">
<g filter="url(#filter0_d_84_640)">
<path d="M35 0.830017H23C12.5066 0.830017 4 9.33661 4 19.83V31.83C4 42.3234 12.5066 50.83 23 50.83H35C45.4934 50.83 54 42.3234 54 31.83V19.83C54 9.33661 45.4934 0.830017 35 0.830017Z" fill="#4D8DFF"/>
<path d="M29.482 25.473L30.652 26.018L32.393 25.5V24.285C32.393 22.223 30.652 20.571 28.571 20.571C26.5 20.571 24.75 22.214 24.75 24.259V29.794C24.75 30.303 24.339 30.705 23.839 30.705C23.339 30.705 22.929 30.303 22.929 29.794V27.455H20C20 29.803 20 29.83 20 29.83C20 31.946 21.714 33.66 23.83 33.66C25.929 33.66 27.661 31.973 27.661 29.884V24.419C27.661 23.919 28.071 23.509 28.571 23.509C29.071 23.509 29.482 23.919 29.482 24.419V25.473ZM34.214 27.455V29.91C34.214 30.41 33.804 30.812 33.304 30.812C32.804 30.812 32.393 30.41 32.393 29.91V27.5L30.652 28.018L29.482 27.473V29.866C29.482 31.964 31.205 33.66 33.313 33.66C35.429 33.66 37.143 31.946 37.143 29.83C37.143 29.83 37.143 29.803 37.143 27.455H34.214Z" fill="white"/>
</g>
<defs>
<filter id="filter0_d_84_640" x="0" y="0.830017" width="58" height="58" filterUnits="userSpaceOnUse" color-interpolation-filters="sRGB">
<feFlood flood-opacity="0" result="BackgroundImageFix"/>
<feColorMatrix in="SourceAlpha" type="matrix" values="0 0 0 0 0 0 0 0 0 0 0 0 0 0 0 0 0 0 127 0" result="hardAlpha"/>
<feOffset dy="4"/>
<feGaussianBlur stdDeviation="2"/>
<feColorMatrix type="matrix" values="0 0 0 0 0 0 0 0 0 0 0 0 0 0 0 0 0 0 0.25 0"/>
<feBlend mode="normal" in2="BackgroundImageFix" result="effect1_dropShadow_84_640"/>
<feBlend mode="normal" in="SourceGraphic" in2="effect1_dropShadow_84_640" result="shape"/>
</filter>
</defs>
</svg>
